/* XPM */
static char *_9557c65954c4d16ee19d79df674d3ffYtePFCVM7HcPd4kQ[] = {
/* columns rows colors chars-per-pixel */
"64 64 8 1 ",
"  c None",
". c #3D2E1F",
"X c #513E2A",
"o c #684F36",
"O c #635343",
"+ c #72604E",
"@ c #8E6D4A",
"# c #89735D",
/* pixels */
"                                                                ",
"                                                                ",
"                                                                ",
"                                                                ",
"                                                                ",
"                                                                ",
"                                                                ",
"                                                                ",
"                                                                ",
"                                                                ",
"          ####                                                  ",
"          #####                                                 ",
"          O++####                                               ",
"          O+#++###                                              ",
"           O###+O##                                             ",
"           +OOO++####                                           ",
"           O+++++++###                                          ",
"           OOOO++###+#                                          ",
"            OOOO+OO#+                                           ",
"             OO+++Ooo                                           ",
"             OO++..Xoo                                          ",
"             OOOO.XXXoo                                         ",
"              OO ..XXXoo                                        ",
"                  .XXXooo                                       ",
"                   .XXXooo                                      ",
"                    .XXXXo                                      ",
"                     .XXXoo                                     ",
"                      .XXXoo                                    ",
"                       .XXXoo                                   ",
"                        ..XXoo                                  ",
"                         ..XXoo                                 ",
"                          .XXXXo                                ",
"                           .XXXXo                               ",
"                            .XXXoo                              ",
"                             ..XXoo                             ",
"                              ..XXoo                            ",
"                               .XXXXo                           ",
"                                .XXXXo                          ",
"                                 ..XXoo                         ",
"                                  ..XXXo                        ",
"                                   .XXXoo                       ",
"                                    ..XXoo                      ",
"                                     .XXXoo                     ",
"                                      ..XXXo                    ",
"                                       .XXXoo                   ",
"                                        .XXXXo                  ",
"                                         .XXXoo                 ",
"                                          ..XXXo                ",
"                                           ..XXXo               ",
"                                            ..XXXo              ",
"                                             .XXXoo             ",
"                                              .XX@@o            ",
"                                               .@@@@            ",
"                                                .@@             ",
"                                                                ",
"                                                                ",
"                                                                ",
"                                                                ",
"                                                                ",
"                                                                ",
"                                                                ",
"                                                                ",
"                                                                ",
"                                                                "
};
